<?xml version="1.0" encoding="utf-8"?>
<!-- Generator: Adobe Illustrator 24.0.2, SVG Export Plug-In . SVG Version: 6.00 Build 0)  -->
<svg version="1.1" id="Layer_1" xmlns="http://www.w3.org/2000/svg" xmlns:xlink="http://www.w3.org/1999/xlink" x="0px" y="0px"
	 viewBox="0 0 508.9 58.5" style="enable-background:new 0 0 508.9 58.5;" xml:space="preserve">
<style type="text/css">
	.st0{fill-rule:evenodd;clip-rule:evenodd;fill:#1D1D1B;}
	.st1{fill-rule:evenodd;clip-rule:evenodd;fill:#FFFFFF;}
	.st2{fill:#FFFFFF;}
	.st3{fill-rule:evenodd;clip-rule:evenodd;fill:#3E4A51;}
	.st4{fill-rule:evenodd;clip-rule:evenodd;fill:#4A555C;}
	.st5{fill-rule:evenodd;clip-rule:evenodd;fill:#505B61;}
	.st6{fill-rule:evenodd;clip-rule:evenodd;fill:#596369;}
	.st7{fill-rule:evenodd;clip-rule:evenodd;fill:#606A70;}
	.st8{fill-rule:evenodd;clip-rule:evenodd;fill:#656F74;}
	.st9{fill-rule:evenodd;clip-rule:evenodd;fill:#6D767C;}
	.st10{fill-rule:evenodd;clip-rule:evenodd;fill:#757E82;}
	.st11{fill-rule:evenodd;clip-rule:evenodd;fill:#7A8287;}
	.st12{fill-rule:evenodd;clip-rule:evenodd;fill:#80898E;}
	.st13{fill-rule:evenodd;clip-rule:evenodd;fill:#868E93;}
	.st14{fill-rule:evenodd;clip-rule:evenodd;fill:#8B9499;}
	.st15{fill-rule:evenodd;clip-rule:evenodd;fill:#949CA0;}
	.st16{fill-rule:evenodd;clip-rule:evenodd;fill:#9BA3A7;}
	.st17{fill-rule:evenodd;clip-rule:evenodd;fill:#A1A8AC;}
	.st18{fill-rule:evenodd;clip-rule:evenodd;fill:#A9AFB2;}
	.st19{fill-rule:evenodd;clip-rule:evenodd;fill:#AFB5B8;}
	.st20{fill-rule:evenodd;clip-rule:evenodd;fill:#B5BABC;}
	.st21{fill-rule:evenodd;clip-rule:evenodd;fill:#BDC0C3;}
	.st22{fill-rule:evenodd;clip-rule:evenodd;fill:#C5C7C9;}
	.st23{fill-rule:evenodd;clip-rule:evenodd;fill:#C6C9CB;}
	.st24{fill-rule:evenodd;clip-rule:evenodd;fill:#C8CBCD;}
	.st25{fill-rule:evenodd;clip-rule:evenodd;fill:#CACDCE;}
	.st26{fill-rule:evenodd;clip-rule:evenodd;fill:#CCCFD0;}
	.st27{fill-rule:evenodd;clip-rule:evenodd;fill:#CED0D2;}
	.st28{fill-rule:evenodd;clip-rule:evenodd;fill:#D0D3D4;}
	.st29{fill-rule:evenodd;clip-rule:evenodd;fill:#D2D5D5;}
	.st30{fill-rule:evenodd;clip-rule:evenodd;fill:#D4D6D6;}
	.st31{fill-rule:evenodd;clip-rule:evenodd;fill:#D6D8D8;}
	.st32{fill-rule:evenodd;clip-rule:evenodd;fill:#D7DADA;}
	.st33{fill-rule:evenodd;clip-rule:evenodd;fill:#DBDDDC;}
	.st34{fill-rule:evenodd;clip-rule:evenodd;fill:#DCDEDC;}
	.st35{fill-rule:evenodd;clip-rule:evenodd;fill:#DEE0DE;}
	.st36{fill-rule:evenodd;clip-rule:evenodd;fill:#E1E2E0;}
	.st37{fill-rule:evenodd;clip-rule:evenodd;fill:#E2E4E0;}
	.st38{fill-rule:evenodd;clip-rule:evenodd;fill:#E4E6E2;}
	.st39{fill-rule:evenodd;clip-rule:evenodd;fill:#E8E9E5;}
	.st40{fill-rule:evenodd;clip-rule:evenodd;fill:#F7F8F6;}
	.st41{fill-rule:evenodd;clip-rule:evenodd;fill:#F6F6F3;}
	.st42{fill-rule:evenodd;clip-rule:evenodd;fill:#F4F5F3;}
	.st43{fill-rule:evenodd;clip-rule:evenodd;fill:#F1F2F0;}
	.st44{fill-rule:evenodd;clip-rule:evenodd;fill:#EFF0EE;}
	.st45{fill-rule:evenodd;clip-rule:evenodd;fill:#EBEDEB;}
	.st46{fill-rule:evenodd;clip-rule:evenodd;fill:#E9EBE9;}
	.st47{fill-rule:evenodd;clip-rule:evenodd;fill:#E6E7E5;}
	.st48{fill-rule:evenodd;clip-rule:evenodd;fill:#E2E4E2;}
	.st49{fill-rule:evenodd;clip-rule:evenodd;fill:#D7D9D8;}
	.st50{fill-rule:evenodd;clip-rule:evenodd;fill:#D5D7D6;}
	.st51{fill-rule:evenodd;clip-rule:evenodd;fill:#D1D3D3;}
	.st52{fill-rule:evenodd;clip-rule:evenodd;fill:#CCCFCF;}
	.st53{fill-rule:evenodd;clip-rule:evenodd;fill:#C4C8C9;}
	.st54{fill-rule:evenodd;clip-rule:evenodd;fill:#C0C4C5;}
	.st55{fill-rule:evenodd;clip-rule:evenodd;fill:#B9BDBE;}
	.st56{fill-rule:evenodd;clip-rule:evenodd;fill:#B2B7B9;}
	.st57{fill-rule:evenodd;clip-rule:evenodd;fill:#ADB3B5;}
	.st58{fill-rule:evenodd;clip-rule:evenodd;fill:#A6ACAE;}
	.st59{fill-rule:evenodd;clip-rule:evenodd;fill:#9DA4A7;}
	.st60{fill-rule:evenodd;clip-rule:evenodd;fill:#99A0A4;}
	.st61{fill-rule:evenodd;clip-rule:evenodd;fill:#91999D;}
	.st62{fill-rule:evenodd;clip-rule:evenodd;fill:#8A9297;}
	.st63{fill-rule:evenodd;clip-rule:evenodd;fill:#858E92;}
	.st64{fill-rule:evenodd;clip-rule:evenodd;fill:#7E868B;}
	.st65{fill-rule:evenodd;clip-rule:evenodd;fill:#717B80;}
	.st66{fill-rule:evenodd;clip-rule:evenodd;fill:#6D767B;}
	.st67{fill-rule:evenodd;clip-rule:evenodd;fill:#666F74;}
	.st68{fill-rule:evenodd;clip-rule:evenodd;fill:#5E686E;}
	.st69{fill-rule:evenodd;clip-rule:evenodd;fill:#525C61;}
	.st70{fill-rule:evenodd;clip-rule:evenodd;fill:#4D565C;}
	.st71{fill-rule:evenodd;clip-rule:evenodd;fill:#485157;}
	.st72{fill-rule:evenodd;clip-rule:evenodd;fill:#F2F3F1;}
	.st73{fill-rule:evenodd;clip-rule:evenodd;fill:#EDEEEC;}
	.st74{fill-rule:evenodd;clip-rule:evenodd;fill:#DBDFDE;}
	.st75{fill-rule:evenodd;clip-rule:evenodd;fill:#CACFD0;}
	.st76{fill-rule:evenodd;clip-rule:evenodd;fill:#BCC1C3;}
	.st77{fill-rule:evenodd;clip-rule:evenodd;fill:#AAB0B4;}
	.st78{fill-rule:evenodd;clip-rule:evenodd;fill:#9AA1A4;}
	.st79{fill-rule:evenodd;clip-rule:evenodd;fill:#888F93;}
	.st80{fill-rule:evenodd;clip-rule:evenodd;fill:#7C8387;}
	.st81{fill-rule:evenodd;clip-rule:evenodd;fill:#777F82;}
	.st82{fill-rule:evenodd;clip-rule:evenodd;fill:#727A7F;}
	.st83{fill-rule:evenodd;clip-rule:evenodd;fill:#687277;}
	.st84{fill-rule:evenodd;clip-rule:evenodd;fill:#636D73;}
	.st85{fill-rule:evenodd;clip-rule:evenodd;fill:#5D686E;}
	.st86{fill-rule:evenodd;clip-rule:evenodd;fill:#576269;}
	.st87{fill-rule:evenodd;clip-rule:evenodd;fill:#515C63;}
	.st88{fill-rule:evenodd;clip-rule:evenodd;fill:#4C575E;}
	.st89{fill-rule:evenodd;clip-rule:evenodd;fill:#475259;}
	.st90{fill-rule:evenodd;clip-rule:evenodd;fill:#414D54;}
	.st91{fill-rule:evenodd;clip-rule:evenodd;fill:#3B474E;}
	.st92{fill-rule:evenodd;clip-rule:evenodd;fill:#354149;}
	.st93{fill-rule:evenodd;clip-rule:evenodd;fill:#303C43;}
	.st94{fill-rule:evenodd;clip-rule:evenodd;fill:#2B363D;}
	.st95{fill-rule:evenodd;clip-rule:evenodd;fill:#243038;}
	.st96{fill-rule:evenodd;clip-rule:evenodd;fill:#1F2B33;}
	.st97{fill-rule:evenodd;clip-rule:evenodd;fill:#1B272F;}
	.st98{fill-rule:evenodd;clip-rule:evenodd;fill:#1A272F;}
	.st99{fill-rule:evenodd;clip-rule:evenodd;fill:#16232C;}
	.st100{fill-rule:evenodd;clip-rule:evenodd;fill:#121F28;}
	.st101{fill-rule:evenodd;clip-rule:evenodd;fill:#101F28;}
	.st102{fill-rule:evenodd;clip-rule:evenodd;fill:#0E1C25;}
	.st103{fill-rule:evenodd;clip-rule:evenodd;fill:#0D1C25;}
	.st104{fill-rule:evenodd;clip-rule:evenodd;fill:#081822;}
	.st105{fill-rule:evenodd;clip-rule:evenodd;fill:#071822;}
	.st106{fill-rule:evenodd;clip-rule:evenodd;fill:#031520;}
	.st107{fill-rule:evenodd;clip-rule:evenodd;fill:#011520;}
	.st108{fill-rule:evenodd;clip-rule:evenodd;fill:#00121E;}
	.st109{fill-rule:evenodd;clip-rule:evenodd;fill:#00111C;}
	.st110{fill-rule:evenodd;clip-rule:evenodd;fill:#0C1C26;}
	.st111{fill-rule:evenodd;clip-rule:evenodd;fill:#18262F;}
	.st112{fill-rule:evenodd;clip-rule:evenodd;fill:#24323A;}
	.st113{fill-rule:evenodd;clip-rule:evenodd;fill:#2F3C43;}
	.st114{fill-rule:evenodd;clip-rule:evenodd;fill:#39444B;}
	.st115{fill-rule:evenodd;clip-rule:evenodd;fill:#424B51;}
	.st116{fill-rule:evenodd;clip-rule:evenodd;fill:#2E3940;}
	.st117{fill-rule:evenodd;clip-rule:evenodd;fill:#313C43;}
	.st118{fill-rule:evenodd;clip-rule:evenodd;fill:#333E45;}
	.st119{fill-rule:evenodd;clip-rule:evenodd;fill:#374248;}
	.st120{fill-rule:evenodd;clip-rule:evenodd;fill:#404B51;}
	.st121{fill-rule:evenodd;clip-rule:evenodd;fill:#434D54;}
	.st122{fill-rule:evenodd;clip-rule:evenodd;fill:#465157;}
	.st123{fill-rule:evenodd;clip-rule:evenodd;fill:#4B565C;}
	.st124{fill-rule:evenodd;clip-rule:evenodd;fill:#4E585E;}
	.st125{fill-rule:evenodd;clip-rule:evenodd;fill:#525B61;}
	.st126{fill-rule:evenodd;clip-rule:evenodd;fill:#545D63;}
	.st127{fill-rule:evenodd;clip-rule:evenodd;fill:#5A6369;}
	.st128{fill-rule:evenodd;clip-rule:evenodd;fill:#5D666B;}
	.st129{fill-rule:evenodd;clip-rule:evenodd;fill:#61696E;}
	.st130{fill-rule:evenodd;clip-rule:evenodd;fill:#666E73;}
	.st131{fill-rule:evenodd;clip-rule:evenodd;fill:#6D757A;}
	.st132{fill-rule:evenodd;clip-rule:evenodd;fill:#737C80;}
	.st133{fill-rule:evenodd;clip-rule:evenodd;fill:#7B8287;}
	.st134{fill-rule:evenodd;clip-rule:evenodd;fill:#828B90;}
	.st135{fill-rule:evenodd;clip-rule:evenodd;fill:#98A0A4;}
	.st136{fill-rule:evenodd;clip-rule:evenodd;fill:#9FA7AB;}
	.st137{fill-rule:evenodd;clip-rule:evenodd;fill:#A7AEB2;}
	.st138{fill-rule:evenodd;clip-rule:evenodd;fill:#ACB3B6;}
	.st139{fill-rule:evenodd;clip-rule:evenodd;fill:#B4BBBD;}
	.st140{fill-rule:evenodd;clip-rule:evenodd;fill:#BDC3C4;}
	.st141{fill-rule:evenodd;clip-rule:evenodd;fill:#C3C9CA;}
	.st142{fill-rule:evenodd;clip-rule:evenodd;fill:#D1D5D6;}
	.st143{fill-rule:evenodd;clip-rule:evenodd;fill:#D7DBDC;}
	.st144{fill-rule:evenodd;clip-rule:evenodd;fill:#DFE2E0;}
	.st145{fill:#E6E7E3;}
	.st146{fill:#E3E5E2;}
	.st147{fill:#E1E3E0;}
	.st148{fill:#DFE2DE;}
	.st149{fill:#DBDEDC;}
	.st150{fill:#D9DCDA;}
	.st151{fill:#D6DAD8;}
	.st152{fill:#D4D8D6;}
	.st153{fill:#D0D6D5;}
	.st154{fill:#CED4D3;}
	.st155{fill:#CBD2D1;}
	.st156{fill:#C9CFCF;}
	.st157{fill:#C5CCCC;}
	.st158{fill:#C5CCCE;}
	.st159{fill:#C1CACC;}
	.st160{fill:#BFC8CA;}
	.st161{fill:#BCC6C9;}
	.st162{fill:#BAC4C6;}
	.st163{fill:#B7C1C5;}
	.st164{fill:#B4BFC2;}
	.st165{fill:#B2BDC1;}
	.st166{fill:#B0BBBF;}
	.st167{fill:#ADB8BC;}
	.st168{fill:#AAB6BB;}
	.st169{fill:#A8B4B8;}
	.st170{fill:#A5B2B7;}
	.st171{fill:#A3B0B4;}
	.st172{fill:#A0ADB2;}
	.st173{fill:#9DABB0;}
	.st174{fill:#9BA9AE;}
	.st175{fill:#98A6AC;}
	.st176{fill:#94A3A9;}
	.st177{fill:#93A2A8;}
	.st178{fill:#8F9FA5;}
	.st179{fill:#8D9DA4;}
	.st180{fill:#8A9AA1;}
	.st181{fill:#8A9AA2;}
	.st182{fill:#8798A0;}
	.st183{fill:#84969D;}
	.st184{fill:#82939B;}
	.st185{fill:#809199;}
	.st186{fill:#7E8E96;}
	.st187{fill:#7B8C95;}
	.st188{fill:#798A92;}
	.st189{fill:#768890;}
	.st190{fill:#74858E;}
	.st191{fill:#71838C;}
	.st192{fill:#6F8089;}
	.st193{fill:#6B7E86;}
	.st194{fill:#6A7D84;}
	.st195{fill:#667A82;}
	.st196{fill:#657880;}
	.st197{fill:#61757E;}
	.st198{fill:#60737C;}
	.st199{fill:#5C707A;}
	.st200{fill:#5B6F78;}
	.st201{fill:#596C75;}
	.st202{fill:#556972;}
	.st203{fill:#546771;}
	.st204{fill:#536771;}
	.st205{fill:#51656F;}
	.st206{fill:#4E626D;}
	.st207{fill:#4B606A;}
	.st208{fill:#495E68;}
	.st209{fill:#475B65;}
	.st210{fill:#435862;}
	.st211{fill:#425660;}
	.st212{fill:#3E535D;}
	.st213{fill:#3D515B;}
	.st214{fill:#394E58;}
	.st215{fill:#384C56;}
	.st216{fill:#344953;}
	.st217{fill:#334751;}
	.st218{fill:#2F444E;}
	.st219{fill:#2D414B;}
	.st220{fill:#2B3F48;}
	.st221{fill:#273B45;}
	.st222{fill:#263943;}
	.st223{fill:#223640;}
	.st224{fill:#20343D;}
	.st225{fill:#1D303A;}
	.st226{fill:#1A2E38;}
	.st227{fill:#162A34;}
	.st228{fill:#112530;}
	.st229{fill:#0F222D;}
	.st230{fill:#0A1E29;}
	.st231{fill:#081B26;}
	.st232{fill:#031722;}
	.st233{fill:#001520;}
	.st234{fill:#00121E;}
	.st235{fill:#00111D;}
	.st236{fill:#F2F3F1;}
	.st237{fill:#F1F2F0;}
	.st238{fill:#EDEFEE;}
	.st239{fill:#EBEDEC;}
	.st240{fill:#EAECEA;}
	.st241{fill:#E5E9E8;}
	.st242{fill:#E4E8E7;}
	.st243{fill:#E0E5E5;}
	.st244{fill:#DFE4E3;}
	.st245{fill:#DAE1E1;}
	.st246{fill:#D9DFE0;}
	.st247{fill:#D6DCDD;}
	.st248{fill:#D3DADB;}
	.st249{fill:#D0D8DA;}
	.st250{fill:#CCD4D6;}
	.st251{fill:#C8D1D4;}
	.st252{fill:#C7D0D2;}
	.st253{fill:#C3CDD1;}
	.st254{fill:#C1CBCF;}
	.st255{fill:#BEC9CD;}
	.st256{fill:#BBC6CB;}
	.st257{fill:#B9C4C9;}
	.st258{fill:#B7C2C7;}
	.st259{fill:#B3C0C5;}
	.st260{fill:#B1BEC3;}
	.st261{fill:#AEBCC2;}
	.st262{fill:#ACB9BF;}
	.st263{fill:#AAB7BD;}
	.st264{fill:#A7B5BB;}
	.st265{fill:#A4B3B9;}
	.st266{fill:#A2B1B7;}
	.st267{fill:#A0AEB5;}
	.st268{fill:#9CACB3;}
	.st269{fill:#9AAAB1;}
	.st270{fill:#97A7AF;}
	.st271{fill:#95A5AD;}
	.st272{fill:#91A2AA;}
	.st273{fill:#90A1A8;}
	.st274{fill:#8C9EA6;}
	.st275{fill:#8A9CA4;}
	.st276{fill:#8799A2;}
	.st277{fill:#8598A0;}
	.st278{fill:#81949D;}
	.st279{fill:#80929B;}
	.st280{fill:#7B8D96;}
	.st281{fill:#7A8C95;}
	.st282{fill:#768992;}
	.st283{fill:#758790;}
	.st284{fill:#72858E;}
	.st285{fill:#6F828D;}
	.st286{fill:#6D808A;}
	.st287{fill:#6A7E87;}
	.st288{fill:#687C85;}
	.st289{fill:#657983;}
	.st290{fill:#637781;}
	.st291{fill:#60757F;}
	.st292{fill:#5E737D;}
	.st293{fill:#5B707B;}
	.st294{fill:#596E79;}
	.st295{fill:#566B76;}
	.st296{fill:#546973;}
	.st297{fill:#516771;}
	.st298{fill:#4F646F;}
	.st299{fill:#4D626D;}
	.st300{fill:#4A5F6A;}
	.st301{fill:#475D68;}
	.st302{fill:#455B65;}
	.st303{fill:#425762;}
	.st304{fill:#405660;}
	.st305{fill:#3D535D;}
	.st306{fill:#3C515B;}
	.st307{fill:#374C56;}
	.st308{fill:#324751;}
	.st309{fill:#2A3E48;}
	.st310{fill:#253943;}
	.st311{fill:#1F333E;}
	.st312{fill-rule:evenodd;clip-rule:evenodd;fill:#E8EAE8;}
	.st313{fill-rule:evenodd;clip-rule:evenodd;fill:#D2D7D7;}
	.st314{fill-rule:evenodd;clip-rule:evenodd;fill:#BAC1C4;}
	.st315{fill-rule:evenodd;clip-rule:evenodd;fill:#A4ADB0;}
	.st316{fill-rule:evenodd;clip-rule:evenodd;fill:#8B969B;}
	.st317{fill-rule:evenodd;clip-rule:evenodd;fill:#737D82;}
	.st318{fill-rule:evenodd;clip-rule:evenodd;fill:#5C656B;}
	.st319{fill-rule:evenodd;clip-rule:evenodd;fill:#495359;}
	.st320{fill-rule:evenodd;clip-rule:evenodd;fill:#455057;}
	.st321{fill-rule:evenodd;clip-rule:evenodd;fill:#37434B;}
	.st322{fill-rule:evenodd;clip-rule:evenodd;fill:#313E45;}
	.st323{fill-rule:evenodd;clip-rule:evenodd;fill:#2D3B43;}
	.st324{fill-rule:evenodd;clip-rule:evenodd;fill:#28363D;}
	.st325{fill-rule:evenodd;clip-rule:evenodd;fill:#23323A;}
	.st326{fill-rule:evenodd;clip-rule:evenodd;fill:#202F38;}
	.st327{fill-rule:evenodd;clip-rule:evenodd;fill:#17262F;}
	.st328{fill-rule:evenodd;clip-rule:evenodd;fill:#14232C;}
	.st329{fill-rule:evenodd;clip-rule:evenodd;fill:#061822;}
	.st330{fill-rule:evenodd;clip-rule:evenodd;fill:#00111D;}
	.st331{fill-rule:evenodd;clip-rule:evenodd;fill:#0B1B26;}
	.st332{fill-rule:evenodd;clip-rule:evenodd;fill:#0E1E28;}
	.st333{fill-rule:evenodd;clip-rule:evenodd;fill:#16262F;}
	.st334{fill-rule:evenodd;clip-rule:evenodd;fill:#1F2F38;}
	.st335{fill-rule:evenodd;clip-rule:evenodd;fill:#22323A;}
	.st336{fill-rule:evenodd;clip-rule:evenodd;fill:#26353E;}
	.st337{fill-rule:evenodd;clip-rule:evenodd;fill:#2C3B43;}
	.st338{fill-rule:evenodd;clip-rule:evenodd;fill:#314049;}
	.st339{fill-rule:evenodd;clip-rule:evenodd;fill:#35434B;}
	.st340{fill-rule:evenodd;clip-rule:evenodd;fill:#3F4C54;}
	.st341{fill-rule:evenodd;clip-rule:evenodd;fill:#49555C;}
	.st342{fill-rule:evenodd;clip-rule:evenodd;fill:#525D63;}
	.st343{fill-rule:evenodd;clip-rule:evenodd;fill:#6C7377;}
	.st344{fill-rule:evenodd;clip-rule:evenodd;fill:#70787C;}
	.st345{fill-rule:evenodd;clip-rule:evenodd;fill:#737A7F;}
	.st346{fill-rule:evenodd;clip-rule:evenodd;fill:#767D80;}
	.st347{fill-rule:evenodd;clip-rule:evenodd;fill:#787F82;}
	.st348{fill-rule:evenodd;clip-rule:evenodd;fill:#7A8084;}
	.st349{fill-rule:evenodd;clip-rule:evenodd;fill:#7F8589;}
	.st350{fill-rule:evenodd;clip-rule:evenodd;fill:#5C6469;}
	.st351{fill-rule:evenodd;clip-rule:evenodd;fill:#586166;}
	.st352{fill-rule:evenodd;clip-rule:evenodd;fill:#1C2B34;}
	.st353{fill-rule:evenodd;clip-rule:evenodd;fill:#27353D;}
	.st354{fill-rule:evenodd;clip-rule:evenodd;fill:#38444B;}
	.st355{fill-rule:evenodd;clip-rule:evenodd;fill:#485259;}
	.st356{fill-rule:evenodd;clip-rule:evenodd;fill:#4C565C;}
	.st357{fill-rule:evenodd;clip-rule:evenodd;fill:#6F797E;}
	.st358{fill-rule:evenodd;clip-rule:evenodd;fill:#858F94;}
	.st359{fill-rule:evenodd;clip-rule:evenodd;fill:#9AA3A7;}
	.st360{fill-rule:evenodd;clip-rule:evenodd;fill:#B0B7BA;}
	.st361{fill-rule:evenodd;clip-rule:evenodd;fill:#C4CACB;}
	.st362{fill-rule:evenodd;clip-rule:evenodd;fill:#D9DCDA;}
	.st363{fill-rule:evenodd;clip-rule:evenodd;fill:#E6E7E3;}
	.st364{fill:#7F8589;}
	.st365{fill:#4F585E;}
	.st366{fill:#AEB3B7;}
	.st367{fill-rule:evenodd;clip-rule:evenodd;fill:#7B8389;}
	.st368{fill-rule:evenodd;clip-rule:evenodd;fill:#81898E;}
	.st369{fill-rule:evenodd;clip-rule:evenodd;fill:#90979C;}
	.st370{fill-rule:evenodd;clip-rule:evenodd;fill:#959CA0;}
	.st371{fill-rule:evenodd;clip-rule:evenodd;fill:#9AA1A5;}
	.st372{fill-rule:evenodd;clip-rule:evenodd;fill:#999FA3;}
	.st373{fill-rule:evenodd;clip-rule:evenodd;fill:#969DA1;}
	.st374{fill-rule:evenodd;clip-rule:evenodd;fill:#92989C;}
	.st375{fill-rule:evenodd;clip-rule:evenodd;fill:#91989C;}
	.st376{fill-rule:evenodd;clip-rule:evenodd;fill:#8E9599;}
	.st377{fill-rule:evenodd;clip-rule:evenodd;fill:#8C9398;}
	.st378{fill-rule:evenodd;clip-rule:evenodd;fill:#8A9195;}
	.st379{fill-rule:evenodd;clip-rule:evenodd;fill:#868C90;}
	.st380{fill-rule:evenodd;clip-rule:evenodd;fill:#838A8E;}
	.st381{fill-rule:evenodd;clip-rule:evenodd;fill:#81888C;}
	.st382{fill-rule:evenodd;clip-rule:evenodd;fill:#858C90;}
	.st383{fill-rule:evenodd;clip-rule:evenodd;fill:#949A9E;}
	.st384{fill-rule:evenodd;clip-rule:evenodd;fill:#60696E;}
	.st385{fill-rule:evenodd;clip-rule:evenodd;fill:#616A70;}
	.st386{fill-rule:evenodd;clip-rule:evenodd;fill:#656D73;}
	.st387{fill-rule:evenodd;clip-rule:evenodd;fill:#697277;}
	.st388{fill-rule:evenodd;clip-rule:evenodd;fill:#6E777C;}
	.st389{fill-rule:evenodd;clip-rule:evenodd;fill:#6F777C;}
	.st390{fill:#2E3940;}
	.st391{fill:#303C43;}
	.st392{fill:#313C43;}
	.st393{fill:#333E45;}
	.st394{fill:#374248;}
	.st395{fill:#38444B;}
	.st396{fill:#39444B;}
	.st397{fill:#3C474E;}
	.st398{fill:#404B51;}
	.st399{fill:#414D54;}
	.st400{fill:#434D54;}
	.st401{fill:#455057;}
	.st402{fill:#475259;}
	.st403{fill:#485259;}
	.st404{fill:#4A555C;}
	.st405{fill:#4D585E;}
	.st406{fill:#4F5B61;}
	.st407{fill:#505B61;}
	.st408{fill:#525D63;}
	.st409{fill:#545F66;}
	.st410{fill:#566066;}
	.st411{fill:#586369;}
	.st412{fill:#5B656B;}
	.st413{fill:#5D686E;}
	.st414{fill:#5E686E;}
	.st415{fill:#606A70;}
	.st416{fill:#636D73;}
	.st417{fill:#646D73;}
	.st418{fill:#656F74;}
	.st419{fill:#666F74;}
	.st420{fill:#697277;}
	.st421{fill:#6D757A;}
	.st422{fill:#6E777C;}
	.st423{fill:#6F777C;}
	.st424{fill:#727A7F;}
	.st425{fill:#737C80;}
	.st426{fill:#757C80;}
	.st427{fill:#777F82;}
	.st428{fill:#7A8084;}
	.st429{fill:#7C8387;}
	.st430{fill:#7E8387;}
	.st431{fill:#576066;}
	.st432{fill:#545D63;}
	.st433{fill:#535D63;}
	.st434{fill:#525B61;}
	.st435{fill:#4E585E;}
	.st436{fill:#4B565C;}
	.st437{fill:#495359;}
	.st438{fill:#465157;}
	.st439{fill:#414B51;}
	.st440{fill:#3D484E;}
	.st441{fill:#343F45;}
	.st442{fill:#00131E;}
	.st443{fill:#011520;}
	.st444{fill:#031520;}
	.st445{fill:#061822;}
	.st446{fill:#071822;}
	.st447{fill:#0B1B26;}
	.st448{fill:#0C1C26;}
	.st449{fill:#101F28;}
	.st450{fill:#14232C;}
	.st451{fill:#15232C;}
	.st452{fill:#17262F;}
	.st453{fill:#18262F;}
	.st454{fill:#1C2B34;}
	.st455{fill:#1D2B34;}
	.st456{fill:#212F38;}
	.st457{fill:#223038;}
	.st458{fill:#24323A;}
	.st459{fill:#26323A;}
	.st460{fill:#28363D;}
	.st461{fill:#29363D;}
	.st462{fill:#2B3840;}
	.st463{fill:#2C3840;}
	.st464{fill:#2F3C43;}
	.st465{fill:#323E45;}
	.st466{fill:#354149;}
	.st467{fill:#3E484E;}
	.st468{fill:#424B51;}
	.st469{fill:#434E54;}
	.st470{fill:#454E54;}
	.st471{fill:#475157;}
	.st472{fill:#485157;}
	.st473{fill-rule:evenodd;clip-rule:evenodd;fill:#FDFDFD;}
	.st474{fill-rule:evenodd;clip-rule:evenodd;fill:#FCFCFC;}
	.st475{fill-rule:evenodd;clip-rule:evenodd;fill:#FAFAFA;}
	.st476{fill-rule:evenodd;clip-rule:evenodd;fill:#F8F8F8;}
	.st477{fill-rule:evenodd;clip-rule:evenodd;fill:#F7F7F7;}
	.st478{fill-rule:evenodd;clip-rule:evenodd;fill:#F5F5F5;}
	.st479{fill-rule:evenodd;clip-rule:evenodd;fill:#F4F5F4;}
	.st480{fill-rule:evenodd;clip-rule:evenodd;fill:#F3F3F3;}
	.st481{fill-rule:evenodd;clip-rule:evenodd;fill:#F1F1F1;}
	.st482{fill-rule:evenodd;clip-rule:evenodd;fill:#EFEFEF;}
	.st483{fill-rule:evenodd;clip-rule:evenodd;fill:#EDEEEE;}
	.st484{fill-rule:evenodd;clip-rule:evenodd;fill:#EAEAE9;}
	.st485{fill-rule:evenodd;clip-rule:evenodd;fill:#E4E6E5;}
	.st486{fill-rule:evenodd;clip-rule:evenodd;fill:#E1E2E2;}
	.st487{fill-rule:evenodd;clip-rule:evenodd;fill:#D4D6D5;}
	.st488{fill-rule:evenodd;clip-rule:evenodd;fill:#C8CCCB;}
	.st489{fill-rule:evenodd;clip-rule:evenodd;fill:#B9BFC0;}
	.st490{fill-rule:evenodd;clip-rule:evenodd;fill:#ABB2B5;}
	.st491{fill-rule:evenodd;clip-rule:evenodd;fill:#9CA4A7;}
	.st492{fill-rule:evenodd;clip-rule:evenodd;fill:#4F585E;}
	.st493{fill-rule:evenodd;clip-rule:evenodd;fill:#D9DADA;}
	.st494{fill-rule:evenodd;clip-rule:evenodd;fill:#E1E2DE;}
	.st495{fill-rule:evenodd;clip-rule:evenodd;fill:#687075;}
	.st496{fill-rule:evenodd;clip-rule:evenodd;fill:#6A7277;}
	.st497{fill-rule:evenodd;clip-rule:evenodd;fill:#6B7377;}
	.st498{fill-rule:evenodd;clip-rule:evenodd;fill:#6E757A;}
	.st499{fill-rule:evenodd;clip-rule:evenodd;fill:#798084;}
	.st500{fill-rule:evenodd;clip-rule:evenodd;fill:#7E8489;}
	.st501{fill-rule:evenodd;clip-rule:evenodd;fill:#80878C;}
	.st502{fill-rule:evenodd;clip-rule:evenodd;fill:#828A8E;}
	.st503{fill-rule:evenodd;clip-rule:evenodd;fill:#878F93;}
	.st504{fill-rule:evenodd;clip-rule:evenodd;fill:#899095;}
	.st505{fill-rule:evenodd;clip-rule:evenodd;fill:#757C80;}
	.st506{fill-rule:evenodd;clip-rule:evenodd;fill:#838B90;}
	.st507{fill-rule:evenodd;clip-rule:evenodd;fill:#8B9397;}
	.st508{fill-rule:evenodd;clip-rule:evenodd;fill:#92999E;}
	.st509{fill-rule:evenodd;clip-rule:evenodd;fill:#767E82;}
	.st510{fill-rule:evenodd;clip-rule:evenodd;fill:#7D8489;}
	.st511{fill-rule:evenodd;clip-rule:evenodd;fill:#646B70;}
	.st512{fill-rule:evenodd;clip-rule:evenodd;fill:#7F878C;}
	.st513{fill-rule:evenodd;clip-rule:evenodd;fill:#879095;}
	.st514{fill-rule:evenodd;clip-rule:evenodd;fill:#626B70;}
	.st515{fill-rule:evenodd;clip-rule:evenodd;fill:#778084;}
	.st516{fill-rule:evenodd;clip-rule:evenodd;fill:#6B757A;}
	.st517{fill-rule:evenodd;clip-rule:evenodd;fill:#6F797F;}
	.st518{fill-rule:evenodd;clip-rule:evenodd;fill:#717A7F;}
	.st519{fill-rule:evenodd;clip-rule:evenodd;fill:#727B80;}
	.st520{fill-rule:evenodd;clip-rule:evenodd;fill:#768084;}
	.st521{fill-rule:evenodd;clip-rule:evenodd;fill:#646D73;}
	.st522{fill-rule:evenodd;clip-rule:evenodd;fill:#6A747A;}
	.st523{fill-rule:evenodd;clip-rule:evenodd;fill:#576066;}
	.st524{fill-rule:evenodd;clip-rule:evenodd;fill:#566066;}
	.st525{fill-rule:evenodd;clip-rule:evenodd;fill:#535D63;}
	.st526{fill-rule:evenodd;clip-rule:evenodd;fill:#4A5359;}
	.st527{fill-rule:evenodd;clip-rule:evenodd;fill:#475157;}
	.st528{fill-rule:evenodd;clip-rule:evenodd;fill:#454E54;}
	.st529{fill-rule:evenodd;clip-rule:evenodd;fill:#434E54;}
	.st530{fill-rule:evenodd;clip-rule:evenodd;fill:#414B51;}
	.st531{fill-rule:evenodd;clip-rule:evenodd;fill:#3E484E;}
	.st532{fill-rule:evenodd;clip-rule:evenodd;fill:#9CA2A5;}
	.st533{fill-rule:evenodd;clip-rule:evenodd;fill:#9EA4A8;}
	.st534{fill-rule:evenodd;clip-rule:evenodd;fill:#A0A6A9;}
	.st535{fill-rule:evenodd;clip-rule:evenodd;fill:#A2A8AC;}
	.st536{fill-rule:evenodd;clip-rule:evenodd;fill:#A4AAAD;}
	.st537{fill-rule:evenodd;clip-rule:evenodd;fill:#A6ACB0;}
	.st538{fill-rule:evenodd;clip-rule:evenodd;fill:#AAAFB3;}
	.st539{fill-rule:evenodd;clip-rule:evenodd;fill:#ABB1B4;}
	.st540{fill-rule:evenodd;clip-rule:evenodd;fill:#AEB3B7;}
	.st541{fill-rule:evenodd;clip-rule:evenodd;fill:#9EA5A9;}
	.st542{fill-rule:evenodd;clip-rule:evenodd;fill:#A2A9AD;}
	.st543{fill-rule:evenodd;clip-rule:evenodd;fill:#99A0A5;}
	.st544{fill-rule:evenodd;clip-rule:evenodd;fill:#979FA3;}
	.st545{fill-rule:evenodd;clip-rule:evenodd;fill:#8D9599;}
	.st546{fill-rule:evenodd;clip-rule:evenodd;fill:#697075;}
	.st547{fill-rule:evenodd;clip-rule:evenodd;fill:#91999E;}
	.st548{fill-rule:evenodd;clip-rule:evenodd;fill:#5E666B;}
	.st549{fill-rule:evenodd;clip-rule:evenodd;fill:#8E979C;}
	.st550{fill-rule:evenodd;clip-rule:evenodd;fill:#8F989D;}
	.st551{fill-rule:evenodd;clip-rule:evenodd;fill:#929BA0;}
	.st552{fill-rule:evenodd;clip-rule:evenodd;fill:#858E93;}
	.st553{fill-rule:evenodd;clip-rule:evenodd;fill:#818A90;}
	.st554{fill-rule:evenodd;clip-rule:evenodd;fill:#798187;}
	.st555{fill-rule:evenodd;clip-rule:evenodd;fill:#5B656B;}
	.st556{fill-rule:evenodd;clip-rule:evenodd;fill:#555E63;}
	.st557{fill-rule:evenodd;clip-rule:evenodd;fill:#6C767C;}
	.st558{fill-rule:evenodd;clip-rule:evenodd;fill:#646E74;}
	.st559{fill-rule:evenodd;clip-rule:evenodd;fill:#5F6A70;}
	.st560{fill-rule:evenodd;clip-rule:evenodd;fill:#586369;}
	.st561{fill-rule:evenodd;clip-rule:evenodd;fill:#50595E;}
	.st562{fill-rule:evenodd;clip-rule:evenodd;fill:#4B5459;}
	.st563{fill-rule:evenodd;clip-rule:evenodd;fill:#4D585E;}
	.st564{fill-rule:evenodd;clip-rule:evenodd;fill:#A8ADB0;}
	.st565{fill-rule:evenodd;clip-rule:evenodd;fill:#9AA0A3;}
	.st566{fill-rule:evenodd;clip-rule:evenodd;fill:#909699;}
	.st567{fill-rule:evenodd;clip-rule:evenodd;fill:#848B8F;}
	.st568{fill-rule:evenodd;clip-rule:evenodd;fill:#7B8184;}
	.st569{fill-rule:evenodd;clip-rule:evenodd;fill:#71787C;}
	.st570{fill-rule:evenodd;clip-rule:evenodd;fill:#A4A9AC;}
	.st571{fill-rule:evenodd;clip-rule:evenodd;fill:#989DA1;}
	.st572{fill-rule:evenodd;clip-rule:evenodd;fill:#8E9498;}
	.st573{fill-rule:evenodd;clip-rule:evenodd;fill:#82888C;}
	.st574{fill-rule:evenodd;clip-rule:evenodd;fill:#7E8387;}
	.st575{fill-rule:evenodd;clip-rule:evenodd;fill:#A5AAAE;}
	.st576{fill-rule:evenodd;clip-rule:evenodd;fill:#798083;}
	.st577{fill-rule:evenodd;clip-rule:evenodd;fill:#747B7F;}
	.st578{fill-rule:evenodd;clip-rule:evenodd;fill:#777D80;}
	.st579{fill-rule:evenodd;clip-rule:evenodd;fill:#8C9195;}
	.st580{fill-rule:evenodd;clip-rule:evenodd;fill:#808589;}
	.st581{fill-rule:evenodd;clip-rule:evenodd;fill:#7F8487;}
	.st582{fill:#71787C;}
	.st583{fill-rule:evenodd;clip-rule:evenodd;fill:#6F767A;}
	.st584{fill-rule:evenodd;clip-rule:evenodd;fill:#BFC3C5;}
	.st585{fill-rule:evenodd;clip-rule:evenodd;fill:#BABEC0;}
	.st586{fill-rule:evenodd;clip-rule:evenodd;fill:#B6BABD;}
	.st587{fill-rule:evenodd;clip-rule:evenodd;fill:#B1B6B8;}
	.st588{fill-rule:evenodd;clip-rule:evenodd;fill:#ADB2B4;}
	.st589{fill-rule:evenodd;clip-rule:evenodd;fill:#B0B4B7;}
	.st590{fill-rule:evenodd;clip-rule:evenodd;fill:#B9BDBF;}
	.st591{fill-rule:evenodd;clip-rule:evenodd;fill:#667177;}
	.st592{fill-rule:evenodd;clip-rule:evenodd;fill:#707A80;}
	.st593{fill-rule:evenodd;clip-rule:evenodd;fill:#757F84;}
	.st594{fill-rule:evenodd;clip-rule:evenodd;fill:#798389;}
	.st595{fill-rule:evenodd;clip-rule:evenodd;fill:#7E888E;}
	.st596{fill-rule:evenodd;clip-rule:evenodd;fill:#828D93;}
	.st597{fill-rule:evenodd;clip-rule:evenodd;fill:#879197;}
	.st598{fill-rule:evenodd;clip-rule:evenodd;fill:#8F9AA0;}
	.st599{fill-rule:evenodd;clip-rule:evenodd;fill:#97A1A7;}
	.st600{fill-rule:evenodd;clip-rule:evenodd;fill:#9BA5AB;}
	.st601{fill-rule:evenodd;clip-rule:evenodd;fill:#A0AAAF;}
	.st602{fill-rule:evenodd;clip-rule:evenodd;fill:#A4AEB3;}
	.st603{fill-rule:evenodd;clip-rule:evenodd;fill:#A9B2B8;}
	.st604{fill-rule:evenodd;clip-rule:evenodd;fill:#AEB7BC;}
	.st605{fill-rule:evenodd;clip-rule:evenodd;fill:#B4BDC2;}
	.st606{fill-rule:evenodd;clip-rule:evenodd;fill:#BAC2C6;}
	.st607{fill-rule:evenodd;clip-rule:evenodd;fill:#BDC5CA;}
	.st608{fill-rule:evenodd;clip-rule:evenodd;fill:#C3CACE;}
	.st609{fill-rule:evenodd;clip-rule:evenodd;fill:#C7CED2;}
	.st610{fill-rule:evenodd;clip-rule:evenodd;fill:#CED4D8;}
	.st611{fill-rule:evenodd;clip-rule:evenodd;fill:#D3D9DB;}
	.st612{fill-rule:evenodd;clip-rule:evenodd;fill:#D7DCDF;}
	.st613{fill-rule:evenodd;clip-rule:evenodd;fill:#DDE1E4;}
	.st614{fill-rule:evenodd;clip-rule:evenodd;fill:#E2E6E8;}
	.st615{fill-rule:evenodd;clip-rule:evenodd;fill:#E7EAEC;}
	.st616{fill-rule:evenodd;clip-rule:evenodd;fill:#ECEEF0;}
	.st617{fill-rule:evenodd;clip-rule:evenodd;fill:#F0F2F4;}
	.st618{fill-rule:evenodd;clip-rule:evenodd;fill:#F6F7F7;}
	.st619{fill-rule:evenodd;clip-rule:evenodd;fill:#FBFBFC;}
	.st620{fill:#969DA1;}
	.st621{fill:#5D666B;}
	.st622{fill:#9AA1A5;}
</style>
<g>
	<path class="st2" d="M326.5,32.6h18.9V37h-18.9V32.6L326.5,32.6z M11.5,6L9.8,50v0.8c0,3.7,1.1,4.5,7,4.9v2c-4.3-0.3-6-0.4-8.4-0.4
		c-2.4,0-4.1,0.1-8.5,0.4v-2c5.9-0.4,6.8-1.1,7-5.7L8.7,8.4V7.9c0-3.9-1.2-4.7-7-5.1V0.7C5,1,6.3,1,8.6,1c3.1,0,4.8-0.1,8.1-0.4
		l15.8,42.9l16-42.9C52.3,1,54.1,1,56.6,1c2.1,0,3.5-0.1,6.7-0.3v2.1c-5.8,0.3-7,1.2-7,5v0.6L57.2,50c0.1,4.6,0.8,5.3,7,5.7v2
		c-5.3-0.5-7.4-0.7-10.6-0.7c-3.2,0-5.3,0.2-10.6,0.7v-2c5.8-0.3,7-1.3,7-5.3V50L49.3,6.1l-14,37.8l-1,2.8l-1.2,3.1L32,53.1L31,55.9
		h-1.3l-0.9-2.7l-1.2-3.3l-1.2-3.3l-1-3L11.5,6L11.5,6z M75.2,33.4c0.8-9.7,4.1-14.8,9.5-14.8c5.5,0,8.3,4.7,8.8,14.8H75.2
		L75.2,33.4z M86.2,55.6c-7.7,0-11.1-5.9-11.2-19.2h25.3c-0.2-13.1-5.5-20-15.5-20c-10.2,0-16.5,8.2-16.5,21.3s6.4,20.7,17.3,20.7
		c8.3,0,13.7-5.2,14.8-13.9H97C96,51.7,92.2,55.6,86.2,55.6L86.2,55.6z M105.3,19.6v-1.5c4.8-0.4,7.7-0.9,11.2-1.9
		c0.4,3.1,0.6,4.5,0.8,7v0.9c1.9-4.8,5.5-7.6,9.9-7.6c4.2,0,7.4,2.8,7.4,6.9c0,2.5-1.4,4.1-3.6,4.1c-2,0-3.5-1.2-3.5-2.9
		c0-0.2,0.1-0.5,0.2-0.8l0.2-0.8v-0.8c0-1.2-1-2-2.5-2c-4.4,0-7.2,5.3-7.2,13.7v17.7c0,3.6,0.8,4.3,6,4.6v1.7
		c-4.7-0.4-6.4-0.5-9.4-0.5c-3.1,0-4.8,0.1-9.5,0.5v-1.7c5.2-0.3,6.1-0.9,6.1-4.6V25.1v-1.4c-0.1-3.6-0.5-4.1-4.9-4.2H105.3
		L105.3,19.6z M167,15.7v14h-1.9c-1.5-7.4-4.7-10.9-9.8-10.9c-6.4,0-10.1,6.9-10.1,19c0,11.9,3.3,17.9,9.8,17.9
		c5.3,0,8.4-3.7,9.4-11.2h3.5c-1.1,9.1-5.9,14-13.6,14c-9.8,0-16.5-8.3-16.5-20.7c0-12.6,6.8-21.3,16.8-21.3c3.6,0,5.9,0.9,8.6,3.6
		l2.3-4.3H167L167,15.7z M180.9,33.4c0.8-9.7,4.1-14.8,9.5-14.8c5.5,0,8.3,4.7,8.8,14.8H180.9L180.9,33.4z M191.9,55.6
		c-7.7,0-11.1-5.9-11.2-19.2H206c-0.2-13.1-5.5-20-15.5-20c-10.2,0-16.5,8.2-16.5,21.3s6.4,20.7,17.3,20.7c8.3,0,13.7-5.2,14.8-13.9
		h-3.4C201.7,51.7,198,55.6,191.9,55.6L191.9,55.6z M229.5,56.1c-6.1,0-9.3-6.4-9.3-18.5c0-12.3,3-18.3,9.1-18.3
		c6.3,0,9.5,6.4,9.5,18.9C238.7,50,235.6,56.1,229.5,56.1L229.5,56.1z M245.4,48.9V0c-4.2,1.1-8.1,1.8-12.8,2.3v1.4c5.3,0,6,0.6,6,5
		v14.8c-3.1-5.1-5.6-6.6-10.2-6.6c-9.1,0-15.4,8.6-15.4,20.8c0,12.2,6.4,20.8,15.7,20.8c4.8,0,8.1-2.2,10.5-7
		c0.3,3.2,0.3,3.6,1.2,6.8c3.5-1.1,4.9-1.4,9.9-2l1.3-0.2v-1.4C245.9,54.5,245.4,54.1,245.4,48.9L245.4,48.9z M261.8,33.4
		c0.8-9.7,4.1-14.8,9.5-14.8c5.5,0,8.3,4.7,8.8,14.8H261.8L261.8,33.4z M272.8,55.6c-7.7,0-11.1-5.9-11.2-19.2h25.3
		c-0.2-13.1-5.5-20-15.5-20c-10.2,0-16.5,8.2-16.5,21.3s6.4,20.7,17.3,20.7c8.3,0,13.7-5.2,14.8-13.9h-3.4
		C282.5,51.7,278.8,55.6,272.8,55.6L272.8,55.6z M294.1,58.5V44.4l1.9-0.1c1.5,7.7,5.1,11.4,11,11.4c5,0,8.7-3.3,8.7-7.6
		c0-2.9-1.6-4.8-5.8-6.7l-3.2-1.4l-3.9-1.8c-6.2-2.9-8.1-5.3-8.1-10.2c0-6.7,5.3-11.3,12.7-11.3c3.3,0,5.8,0.8,8.6,2.7l1.4-3.5h1.5
		v13.1h-2c-0.8-6.8-3.6-10-8.9-10c-4.5,0-8,3.1-8,7c0,3.4,1.3,4.5,9,7.9l3.6,1.5c6.4,2.8,8.7,5.5,8.7,10.5c0,7.1-5.7,12.2-13.6,12.2
		c-3.9,0-7-1-10.2-3.6l-2,3.8H294.1L294.1,58.5z M368.6,29.3c4.5,0,7,0.8,9,2.7c2,1.9,3.1,5.6,3.1,9.7c0,8.5-4.2,13.2-11.8,13.2
		h-3.1c-4.5,0-5.3-0.7-5.3-4.4V29.3H368.6L368.6,29.3z M360.5,3.6h7.2c7.1,0,10.3,3.5,10.3,11.4c0,3.9-0.9,6.7-2.8,8.9
		c-1.9,2.1-4.2,2.8-8.9,2.8h-5.8V3.6L360.5,3.6z M385.5,14.8c0-4.4-1.9-8.3-5.1-10.8c-2.9-2.1-6.2-3.1-11.7-3.1h-22.3v2.1
		c6.1,0.3,7,1,7,5.6v41.1c0,4.6-0.7,5.2-7,5.7v2h21.4c6.3,0,9.7-0.8,13.2-3c4.2-2.7,7-7.9,7-13.2c0-4.6-1.9-8.7-5.3-11.3
		c-1.8-1.4-3.6-2.1-6.7-2.7C382.3,25,385.5,20.7,385.5,14.8L385.5,14.8z M402,33.4c0.8-9.7,4.1-14.8,9.5-14.8
		c5.5,0,8.3,4.7,8.8,14.8H402L402,33.4z M413,55.6c-7.7,0-11.1-5.9-11.2-19.2h25.3c-0.2-13.1-5.5-20-15.5-20
		c-10.2,0-16.5,8.2-16.5,21.3s6.4,20.7,17.3,20.7c8.3,0,13.7-5.2,14.8-13.9h-3.4C422.8,51.7,419,55.6,413,55.6L413,55.6z M431.6,20
		v-1.4c4.9-0.7,7.8-1.4,11.2-2.5c0.4,1.9,0.7,4.2,0.8,7.4c3.1-4.6,6.5-6.6,11.4-6.6c5.1,0,9.5,2.6,11.2,6.8c0.8,2,1.3,4.4,1.3,7.6
		v20.3c0,3.6,0.8,4.3,6,4.6v1.7c-4.5-0.4-6.2-0.5-9.2-0.5c-3.1,0-4.8,0.1-9.2,0.5v-1.7c4.6-0.2,5.7-1,5.7-4.4V30.9
		c0-7.4-2.2-10.3-7.6-10.3c-5.8,0-8.8,3.6-8.8,10.6v20.5c0,3.4,1.1,4.2,5.5,4.4v1.7c-4.4-0.4-6.1-0.5-9.2-0.5c-3,0-4.7,0.1-9.2,0.5
		v-1.7c5.2-0.3,6-0.9,6-4.6V25.3V24c-0.1-3.5-0.6-4-4.8-4C432.4,20,432,20,431.6,20L431.6,20z M476.8,57.5l23-37.8h-10.4
		c-5.5,0-6.9,1.2-9.9,8.8h-1.7l1.9-11h29.2v0l-23.1,37.8h9.9c5.8,0,8.1-2.3,10.7-10h1.8L506,57.5H476.8z"/>
</g>
</svg>
